<svg width="19" height="14" viewBox="0 0 19 14" fill="none" xmlns="http://www.w3.org/2000/svg">
<path d="M16.3156 0H2.12188C1.55912 0 1.01941 0.223554 0.621483 0.621483C0.223554 1.01941 0 1.55912 0 2.12188V11.3156C0 11.8784 0.223554 12.4181 0.621483 12.816C1.01941 13.2139 1.55912 13.4375 2.12188 13.4375H16.3156C16.8784 13.4375 17.4181 13.2139 17.816 12.816C18.2139 12.4181 18.4375 11.8784 18.4375 11.3156V2.12188C18.4375 1.55912 18.2139 1.01941 17.816 0.621483C17.4181 0.223554 16.8784 0 16.3156 0ZM0.9375 2.12188C0.9375 1.80776 1.06228 1.50651 1.2844 1.2844C1.50651 1.06228 1.80776 0.9375 2.12188 0.9375H16.3156C16.6297 0.9375 16.931 1.06228 17.1531 1.2844C17.3752 1.50651 17.5 1.80776 17.5 2.12188V2.67812H0.9375V2.12188ZM17.5 11.3156C17.5 11.6297 17.3752 11.931 17.1531 12.1531C16.931 12.3752 16.6297 12.5 16.3156 12.5H2.12188C1.80776 12.5 1.50651 12.3752 1.2844 12.1531C1.06228 11.931 0.9375 11.6297 0.9375 11.3156V5.44688H17.5V11.3156Z" fill="#92929D"/>
<path d="M9.21875 8.125H2.96875C2.70987 8.125 2.5 8.33487 2.5 8.59375V10.425C2.5 10.6839 2.70987 10.8938 2.96875 10.8938H9.21875C9.47763 10.8938 9.6875 10.6839 9.6875 10.425V8.59375C9.6875 8.33487 9.47763 8.125 9.21875 8.125Z" fill="#92929D"/>
</svg>
