<svg width="29" height="41" viewBox="0 0 29 41" fill="none" xmlns="http://www.w3.org/2000/svg">
    <path
        d="M29 0V34.8064C29 38.2274 26.0713 41 22.4595 41H6.54242C2.92874 41 1.90735e-06 38.2274 1.90735e-06 34.8064V0H29ZM5.28668 30.0065L8.51656 30.0792C9.33338 30.0978 9.93566 30.8283 9.77229 31.6053L9.12671 34.6648C8.85313 35.9598 10.5478 36.748 11.4197 35.7343L13.4923 33.3381C14.0158 32.7307 14.9822 32.7307 15.5077 33.3381L17.5783 35.7343C18.4562 36.748 20.1469 35.9598 19.8753 34.6648L19.2297 31.6053C19.0663 30.8283 19.6686 30.0978 20.4874 30.0792L23.7153 30.0065C25.0793 29.9767 25.4965 28.2029 24.2802 27.601L21.4065 26.1812C20.6783 25.8216 20.4618 24.9104 20.9558 24.2788L22.9103 21.7913C23.7369 20.7404 22.5639 19.3205 21.3239 19.8628L18.3814 21.1559C17.6374 21.482 16.7674 21.0758 16.5666 20.3081L15.7754 17.2765C15.4388 15.9964 13.5592 15.9964 13.2266 17.2765L12.4353 20.3081C12.2346 21.0758 11.3646 21.482 10.6186 21.1559L7.68006 19.8628C6.43613 19.3205 5.26503 20.7404 6.08972 21.7913L8.04418 24.2788C8.54018 24.9104 8.32367 25.8216 7.59543 26.1812L4.71983 27.601C3.50543 28.2029 3.9227 29.9767 5.28668 30.0065Z"
        fill="#F8F9FA" />
</svg>