<svg width="30" height="30" viewBox="0 0 30 30" fill="none" xmlns="http://www.w3.org/2000/svg">
<g clip-path="url(#clip0_50350_2481)">
<path d="M16.9491 0.122588C7.14186 -1.11103 -1.11103 7.14186 0.122588 16.9491C0.961447 23.6353 6.36469 29.0386 13.0509 29.8774C22.8581 31.111 31.111 22.8581 29.8774 13.0509C29.0386 6.36469 23.6353 0.961447 16.9491 0.122588ZM22.8705 14.5189L19.3053 17.1095L20.6746 21.3408C20.8597 21.8959 20.6623 22.5004 20.1812 22.8458C19.9468 23.0185 19.6631 23.1049 19.3917 23.1049C19.1203 23.1049 18.8365 23.0185 18.6022 22.8458L15 20.2305L11.3978 22.8458C11.1635 23.0185 10.8797 23.1049 10.6083 23.1049C10.3369 23.1049 10.0532 23.0185 9.81881 22.8458C9.35004 22.5004 9.15266 21.8959 9.32537 21.3408L10.6947 17.1095L7.09252 14.4942C6.62375 14.1488 6.42637 13.5443 6.59907 12.9892C6.78412 12.4341 7.30224 12.0517 7.88203 12.0517H12.3354L13.7047 7.82035C13.8897 7.26523 14.4079 6.88281 14.9877 6.88281C15.5675 6.88281 16.0856 7.26523 16.2706 7.82035L17.6399 12.0517H22.0933C22.8335 12.0517 23.4379 12.6561 23.4379 13.3963C23.4379 13.8651 23.2036 14.2722 22.8458 14.5189H22.8705Z" fill="#F2F2FA"/>
</g>
<defs>
<clipPath id="clip0_50350_2481">
<rect width="30" height="30" fill="white"/>
</clipPath>
</defs>
</svg>
