<svg width="24" height="24" viewBox="0 0 24 24" fill="none" xmlns="http://www.w3.org/2000/svg">
    <path
        d="M19.1624 8.12044C18.6304 8.66159 18.0758 9.12382 17.64 9.68751C15.8402 12.0212 16.4967 15.5386 18.9983 17.117C19.1454 17.2072 19.2869 17.3255 19.4454 17.3819C19.7963 17.5116 19.8246 17.7089 19.7057 18.0414C19.0775 19.7663 18.121 21.2883 16.9212 22.6693C16.2364 23.4585 15.4044 24.0166 14.3121 23.9658C13.848 23.9433 13.3782 23.8136 12.9424 23.6558C12.2067 23.3909 11.4992 23.0527 10.6956 23.0245C9.82964 22.9963 9.03163 23.2443 8.23927 23.56C7.78084 23.7404 7.30543 23.9095 6.8187 23.9771C5.68677 24.135 4.8548 23.5374 4.153 22.7652C2.59093 21.0516 1.48164 19.0843 0.819461 16.8577C0.394986 15.4034 0.16294 13.9321 0.247835 12.4214C0.33839 10.7754 0.802482 9.25347 1.88914 7.96825C3.34367 6.24898 5.86222 5.14415 8.61847 6.435C8.87881 6.55338 9.15048 6.64921 9.41648 6.74503C10.0221 6.97051 10.5994 6.85777 11.1936 6.64921C12.0709 6.34481 12.9481 5.9615 13.8537 5.84876C15.959 5.58383 17.7475 6.27717 19.0832 7.97388C19.1115 8.01334 19.1398 8.05844 19.1568 8.10353C19.1681 8.12608 19.1624 8.14863 19.1568 8.11481L19.1624 8.12044Z"
        fill="#F2F2FA" />
    <path
        d="M9.93223 4.9331C10.0624 2.50359 12.1112 0.322094 14.5392 0.00642639C14.8222 -0.0330321 14.8505 0.113528 14.8448 0.327731C14.8165 2.35139 13.9562 3.91282 12.2301 4.99511C11.6584 5.35023 11.0302 5.5137 10.368 5.58135C9.94355 5.62644 9.89261 5.54189 9.92657 4.9331H9.93223Z"
        fill="#F2F2FA" />
</svg>