<svg width="24" height="24" viewBox="0 0 24 24" fill="none" xmlns="http://www.w3.org/2000/svg">
    <path
        d="M11.9995 3.84863C11.3561 3.84863 10.8782 3.93377 10.8313 3.94295C8.33319 4.4321 6.66657 6.33701 6.66657 9.17255C6.66657 15.8841 4 15.6619 4 16.7278C4 18.5055 7.99985 18.95 11.9997 18.95C15.9995 18.95 19.9994 18.5055 19.9994 16.7278C19.9994 15.6619 17.3328 15.8841 17.3328 9.17255C17.3328 6.31819 15.6837 4.37569 13.1155 3.94295C13.0846 3.93773 12.6429 3.84863 11.9995 3.84863Z"
        stroke="#F2F2FA" stroke-width="2" stroke-miterlimit="10" stroke-linecap="round" />
    <path
        d="M9.99956 18.9053C9.86588 19.1726 9.77734 19.4834 9.77734 19.8393C9.77734 21.084 10.7547 22.0614 11.9995 22.0614C13.2442 22.0614 14.2216 21.084 14.2216 19.8393C14.2216 19.4834 14.1331 19.1726 13.9994 18.9053"
        stroke="#F2F2FA" stroke-width="2" stroke-miterlimit="10" />
</svg>