<svg width="19" height="19" viewBox="0 0 19 19" fill="none" xmlns="http://www.w3.org/2000/svg">
<path d="M6.53114 10.969C6.31207 10.969 6.12831 10.8948 5.97985 10.7463C5.83191 10.5984 5.75794 10.4149 5.75794 10.1958C5.75794 9.97676 5.83191 9.79299 5.97985 9.64454C6.12831 9.4966 6.31207 9.42263 6.53114 9.42263C6.75021 9.42263 6.93398 9.4966 7.08243 9.64454C7.23037 9.79299 7.30434 9.97676 7.30434 10.1958C7.30434 10.4149 7.23037 10.5984 7.08243 10.7463C6.93398 10.8948 6.75021 10.969 6.53114 10.969ZM9.62392 10.969C9.40485 10.969 9.22135 10.8948 9.07341 10.7463C8.92496 10.5984 8.85073 10.4149 8.85073 10.1958C8.85073 9.97676 8.92496 9.79299 9.07341 9.64454C9.22135 9.4966 9.40485 9.42263 9.62392 9.42263C9.843 9.42263 10.0268 9.4966 10.1752 9.64454C10.3232 9.79299 10.3971 9.97676 10.3971 10.1958C10.3971 10.4149 10.3232 10.5984 10.1752 10.7463C10.0268 10.8948 9.843 10.969 9.62392 10.969ZM12.7167 10.969C12.4976 10.969 12.3141 10.8948 12.1662 10.7463C12.0177 10.5984 11.9435 10.4149 11.9435 10.1958C11.9435 9.97676 12.0177 9.79299 12.1662 9.64454C12.3141 9.4966 12.4976 9.42263 12.7167 9.42263C12.9358 9.42263 13.1193 9.4966 13.2672 9.64454C13.4157 9.79299 13.4899 9.97676 13.4899 10.1958C13.4899 10.4149 13.4157 10.5984 13.2672 10.7463C13.1193 10.8948 12.9358 10.969 12.7167 10.969ZM4.21155 17.1546C3.7863 17.1546 3.42212 17.0033 3.11903 16.7007C2.81645 16.3976 2.66516 16.0335 2.66516 15.6082V4.78346C2.66516 4.3582 2.81645 3.99428 3.11903 3.6917C3.42212 3.38861 3.7863 3.23707 4.21155 3.23707H4.98475V1.69067H6.53114V3.23707H12.7167V1.69067H14.2631V3.23707H15.0363C15.4616 3.23707 15.8257 3.38861 16.1288 3.6917C16.4314 3.99428 16.5827 4.3582 16.5827 4.78346V15.6082C16.5827 16.0335 16.4314 16.3976 16.1288 16.7007C15.8257 17.0033 15.4616 17.1546 15.0363 17.1546H4.21155ZM4.21155 15.6082H15.0363V7.87624H4.21155V15.6082Z" fill="white"/>
</svg>
