<svg width="16" height="16" viewBox="0 0 16 16" fill="none" xmlns="http://www.w3.org/2000/svg">
    <g clip-path="url(#clip0_42971_16080)">
        <path
            d="M14.8952 9.97967C15.9201 6.01337 13.5163 2.00357 9.52615 1.02354C5.53599 0.0435077 1.47048 2.46436 0.445582 6.43067C-0.579314 10.397 1.82451 14.4068 5.81467 15.3868C9.80484 16.3668 13.8703 13.946 14.8952 9.97967Z"
            fill="#CCCCCC" />
        <path
            d="M13.0238 13.0055C15.9334 10.1687 15.9334 5.56953 13.0238 2.73282C10.1142 -0.103894 5.39673 -0.103894 2.4871 2.73282C-0.42253 5.56953 -0.42253 10.1688 2.4871 13.0055C5.39673 15.8422 10.1142 15.8422 13.0238 13.0055Z"
            fill="#E2E2E2" />
        <path
            d="M10.7793 1.23047L0.340642 7.3124C0.280088 8.04131 0.333227 8.77505 0.497587 9.4883L12.6602 2.40155C12.0967 1.92083 11.4627 1.52685 10.7793 1.23047ZM13.938 3.81722L1.16862 11.2558C1.31939 11.5329 1.48869 11.8003 1.67653 12.057L14.4237 4.63047C14.2803 4.34975 14.1184 4.07746 13.938 3.81722ZM14.8723 5.72083L2.45508 12.9546C2.95804 13.457 3.53392 13.8847 4.16294 14.2256L15.2047 7.79312C15.1973 7.09071 15.0848 6.39191 14.871 5.72083H14.8723Z"
            fill="#F4F4F4" />
        <path
            d="M10.5281 12.5811C13.1984 11.0884 14.1219 7.76781 12.5907 5.16445C11.0596 2.5611 7.65367 1.66079 4.9834 3.15355C2.31312 4.64632 1.38967 7.96688 2.92081 10.5702C4.45194 13.1736 7.85786 14.0739 10.5281 12.5811Z"
            fill="#D1D1D1" />
        <path
            d="M9.11779 2.59964C8.86074 2.53699 8.59876 2.49121 8.3343 2.4647C8.06984 2.4382 7.80538 2.42976 7.53969 2.4394C7.27399 2.44904 7.01077 2.47796 6.74878 2.52494C6.48803 2.57193 6.23099 2.63699 5.97889 2.71892C5.72678 2.80205 5.4821 2.90085 5.24483 3.01772C5.00756 3.13458 4.78017 3.26711 4.56267 3.41531C4.34517 3.5635 4.1388 3.72615 3.94478 3.90326C3.75076 4.08037 3.57033 4.27073 3.40474 4.47193C3.23914 4.67434 3.08838 4.8876 2.95368 5.11049C2.81897 5.33338 2.70034 5.56591 2.60024 5.80446C2.49891 6.04422 2.41611 6.29 2.35185 6.54061C2.33578 6.62013 2.32095 6.69844 2.30859 6.77796C2.35679 6.60687 2.41364 6.43699 2.48037 6.27073C2.5817 6.03097 2.6991 5.79964 2.8338 5.57675C2.9685 5.35386 3.11927 5.14061 3.28487 4.9394C3.45046 4.73699 3.63089 4.54663 3.82491 4.37073C4.01893 4.19362 4.2253 4.03097 4.4428 3.88278C4.6603 3.73458 4.88892 3.60205 5.12496 3.48519C5.36223 3.36832 5.60691 3.26832 5.85901 3.18639C6.11111 3.10446 6.36816 3.0394 6.62891 2.99241C6.88966 2.94543 7.15412 2.91651 7.41982 2.90687C7.68551 2.89723 7.94997 2.90567 8.21443 2.93217C8.47889 2.95868 8.73964 3.00446 8.99792 3.06711C9.08937 3.09 9.17958 3.1141 9.26979 3.14181C9.36 3.16832 9.44898 3.19723 9.53796 3.22856C9.62693 3.25988 9.71467 3.29362 9.80118 3.32856C9.88768 3.3647 9.97419 3.40205 10.0582 3.44181C10.1435 3.48157 10.2263 3.52374 10.3091 3.56832C10.3919 3.6129 10.4734 3.65868 10.5538 3.70687C10.6341 3.75506 10.7132 3.80446 10.791 3.85627C10.8689 3.90808 10.9455 3.96229 11.0197 4.01772C11.0951 4.07314 11.168 4.13097 11.2396 4.19C11.3113 4.24904 11.3818 4.31049 11.4497 4.37314C11.5189 4.43579 11.5857 4.50085 11.6512 4.56711C11.7167 4.63338 11.7797 4.70085 11.8415 4.76952C11.9033 4.8382 11.9638 4.90928 12.0219 4.98157C12.08 5.05386 12.1368 5.12735 12.19 5.20205C12.2443 5.27675 12.2962 5.35386 12.3469 5.43097C12.3976 5.50808 12.4458 5.58759 12.4915 5.66711C12.5372 5.74663 12.5817 5.82856 12.6237 5.91049C12.6657 5.99241 12.7053 6.07555 12.7436 6.15988C12.7819 6.24422 12.8165 6.32856 12.8499 6.41531C12.8832 6.50085 12.9141 6.5876 12.9426 6.67555C12.971 6.7635 12.9982 6.85145 13.0216 6.9394C13.0464 7.02856 13.0674 7.11772 13.0871 7.20687C13.1069 7.29603 13.1242 7.38639 13.139 7.47796C13.1539 7.56832 13.1662 7.65988 13.1761 7.75145C13.186 7.84302 13.1934 7.93458 13.1996 8.02615C13.2045 8.11772 13.2082 8.20928 13.2082 8.30085C13.2082 8.39241 13.2082 8.48398 13.2033 8.57555C13.1996 8.66711 13.1922 8.75868 13.1835 8.85025C13.1749 8.94181 13.1638 9.03217 13.1502 9.12374C13.139 9.19723 13.1255 9.27073 13.1119 9.34302C13.1292 9.29362 13.1452 9.24543 13.1613 9.19603C13.1848 9.10687 13.2045 9.01772 13.2231 8.92735C13.2416 8.83699 13.2577 8.74663 13.2713 8.65627C13.2849 8.56591 13.296 8.47434 13.3046 8.38278C13.3133 8.29121 13.3207 8.19964 13.3244 8.10808C13.3281 8.01651 13.3306 7.92494 13.3294 7.83338C13.3294 7.74181 13.3256 7.65025 13.3207 7.55868C13.3158 7.46711 13.3071 7.37555 13.2972 7.28398C13.2873 7.19241 13.275 7.10205 13.2602 7.01049C13.2453 6.92013 13.228 6.82976 13.2082 6.7394C13.1885 6.64904 13.1662 6.55988 13.1428 6.47193C13.118 6.38278 13.0921 6.29482 13.0637 6.20808C13.0352 6.12133 13.0043 6.03458 12.971 5.94784C12.9376 5.86229 12.9018 5.77675 12.8647 5.69241C12.8276 5.60808 12.7868 5.52494 12.7448 5.44302C12.7028 5.36109 12.6583 5.28037 12.6126 5.19964C12.5669 5.12013 12.5174 5.04061 12.468 4.9635C12.4173 4.88639 12.3654 4.80928 12.3111 4.73458C12.2567 4.65988 12.2011 4.58639 12.143 4.5141C12.0849 4.44181 12.0244 4.37073 11.9626 4.30205C11.9008 4.23338 11.8378 4.1647 11.7723 4.09964C11.7068 4.03338 11.64 3.96952 11.5708 3.90567C11.5016 3.84302 11.4324 3.78157 11.3607 3.72253C11.2891 3.6635 11.2149 3.60567 11.1408 3.55025C11.0654 3.49482 10.99 3.44061 10.9122 3.3888C10.8343 3.33699 10.7552 3.28639 10.6749 3.2394C10.5946 3.19121 10.513 3.14543 10.4302 3.10085C10.3474 3.05627 10.2634 3.01531 10.1793 2.97434C10.0941 2.93458 10.0088 2.89723 9.92229 2.86109C9.83578 2.82494 9.74804 2.79241 9.65906 2.76109C9.57009 2.72976 9.48111 2.70085 9.3909 2.67434C9.30069 2.64784 9.21047 2.62253 9.11902 2.59964H9.11779Z"
            fill="#CCCCCC" />
        <path
            d="M9.58982 6.81472C9.45759 6.15207 8.77791 6.11713 8.61602 6.14725C8.26011 6.21472 7.92151 6.55328 7.92645 6.81954L7.93263 7.10508C7.9351 7.20388 7.86342 7.28701 7.76703 7.30508C7.75591 7.30749 7.74355 7.3087 7.73243 7.3087C7.68918 7.3087 7.64963 7.29786 7.61627 7.27617C7.56189 7.24123 7.52482 7.18219 7.52358 7.11352L7.52111 7.00629L7.46427 4.37014C7.46427 4.32075 7.4173 4.27978 7.36787 4.28822L5.37084 4.66773C5.30287 4.68099 5.25838 4.74484 5.27198 4.81111L5.46723 9.56292C5.52531 10.6991 6.45092 10.6207 6.45092 10.6207C6.85873 10.6412 7.35181 10.2533 7.28013 9.48099C7.27025 9.37135 7.37035 9.28099 7.48404 9.28099C7.49145 9.28099 7.49887 9.28219 7.50505 9.2834C7.60762 9.29424 7.68794 9.37737 7.68918 9.47978V9.74002L7.69659 11.8448C7.69659 11.9436 7.78928 12.0183 7.88938 11.9991L9.68498 11.6581C9.75295 11.6448 9.79743 11.581 9.78384 11.5147C9.78384 11.5147 9.67509 7.24364 9.58859 6.81472H9.58982Z"
            fill="#C0BDFF" />
        <path d="M8.12109 6.42382L8.36825 6.14551L8.37443 6.37442L8.21378 6.46358L8.12109 6.42382Z"
            fill="#C0BDFF" />
        <path d="M7.05274 10.3392L7.31967 10.0404L7.15531 9.88379L6.99219 10.1802L7.05274 10.3392Z"
            fill="#EEB80B" />
        <path d="M5.29297 4.71179L5.57596 4.3877L5.91581 4.97806L5.29297 4.71179Z" fill="#C0BDFF" />
        <path d="M9.76758 11.6035L10.0531 11.2854L9.70703 11.1396L9.76758 11.6035Z" fill="#EEB80B" />
        <path
            d="M9.88279 6.48269C9.75056 5.82004 9.07088 5.7851 8.90899 5.81522C8.55308 5.88269 8.21448 6.22125 8.21942 6.48751L8.2256 6.77305C8.22807 6.87185 8.15639 6.95498 8.06 6.97305C8.04888 6.97546 8.03652 6.97667 8.0254 6.97667C7.98215 6.97667 7.9426 6.96582 7.90924 6.94414C7.85486 6.9092 7.81779 6.85016 7.81655 6.78149L7.81408 6.67426L7.75723 4.03811C7.75723 3.98872 7.71027 3.94775 7.66084 3.95618L5.66381 4.3357C5.59584 4.34896 5.55135 4.41281 5.56494 4.47908L5.7602 9.23088C5.81828 10.367 6.74389 10.2887 6.74389 10.2887C7.1517 10.3092 7.64478 9.92125 7.5731 9.14896C7.56321 9.03932 7.66331 8.94896 7.77701 8.94896C7.78442 8.94896 7.79184 8.95016 7.79801 8.95137C7.90059 8.96221 7.98091 9.04534 7.98215 9.14775V9.40799L7.98956 11.5128C7.98956 11.6116 8.08225 11.6863 8.18235 11.667L9.97795 11.3261C10.0459 11.3128 10.0904 11.249 10.0768 11.1827C10.0768 11.1827 9.96806 6.91161 9.88155 6.48269H9.88279Z"
            fill="#F4F4F4" />
    </g>
    <defs>
        <clipPath id="clip0_42971_16080">
            <rect width="15" height="15" fill="white" transform="translate(0.207031 0.603516)" />
        </clipPath>
    </defs>
</svg>