<svg width="9" height="11" viewBox="0 0 9 11" fill="none" xmlns="http://www.w3.org/2000/svg">
<path d="M6.94079 4.06324V3.51554C6.94079 2.02863 5.73542 0.823242 4.24849 0.823242C2.76156 0.823242 1.55619 2.02863 1.55619 3.51554V4.06324C0.856202 4.36874 0.403353 5.0595 0.402344 5.82324V8.13093C0.403606 9.19248 1.26385 10.0527 2.32541 10.054H6.17156C7.23311 10.0527 8.09336 9.19248 8.09464 8.13093V5.82324C8.09365 5.0595 7.64078 4.36874 6.94079 4.06324ZM4.6331 7.36171C4.6331 7.57413 4.46091 7.74632 4.24849 7.74632C4.03608 7.74632 3.86388 7.57413 3.86388 7.36171V6.59247C3.86388 6.38006 4.03608 6.20786 4.24849 6.20786C4.46091 6.20786 4.6331 6.38006 4.6331 6.59247V7.36171ZM6.17157 3.90017H2.32541V3.51556C2.32541 2.45348 3.18639 1.59248 4.24849 1.59248C5.31059 1.59248 6.17157 2.45346 6.17157 3.51556V3.90017Z" fill="#0E1926"/>
</svg>
