<svg width="19" height="19" viewBox="0 0 19 19" fill="none" xmlns="http://www.w3.org/2000/svg">
<path d="M8.41351 0.865147C8.69857 -0.288385 10.3014 -0.288381 10.5865 0.86515L11.3538 3.97025C11.5249 4.66262 12.267 5.02803 12.9031 4.73313L15.7558 3.41058C16.8155 2.91925 17.8149 4.20063 17.1106 5.14774L15.2148 7.69718C14.7921 8.26565 14.9754 9.08672 15.5974 9.41136L18.3873 10.8673C19.4237 11.4081 19.067 13.006 17.9037 13.0335L14.7724 13.1075C14.0742 13.124 13.5606 13.7824 13.7003 14.4821L14.3265 17.6202C14.5592 18.7859 13.115 19.497 12.3687 18.5842L10.3598 16.1271C9.91182 15.5792 9.08818 15.5792 8.64022 16.1271L6.63128 18.5842C5.88496 19.497 4.44084 18.7859 4.67348 17.6202L5.29971 14.4821C5.43935 13.7824 4.92582 13.124 4.22759 13.1075L1.09625 13.0335C-0.0670354 13.006 -0.4237 11.4081 0.612715 10.8673L3.40255 9.41136C4.02463 9.08672 4.20791 8.26565 3.78519 7.69718L1.88941 5.14773C1.18514 4.20063 2.1845 2.91925 3.24425 3.41058L6.09689 4.73313C6.73298 5.02803 7.47505 4.66262 7.64616 3.97024L8.41351 0.865147Z" fill="#D5D5E0"/>
</svg>
