<svg width="27" height="26" viewBox="0 0 27 26" fill="none" xmlns="http://www.w3.org/2000/svg">
    <path
        d="M15.1892 0.106243C6.68962 -0.962891 -0.462891 6.18962 0.606243 14.6892C1.33325 20.4839 6.01606 25.1667 11.8108 25.8938C20.3104 26.9629 27.4629 19.8104 26.3938 11.3108C25.6667 5.51606 20.9839 0.833254 15.1892 0.106243ZM20.3211 12.583L17.2313 14.8282L18.418 18.4953C18.5784 18.9765 18.4073 19.5003 17.9904 19.7997C17.7872 19.9494 17.5413 20.0242 17.3061 20.0242C17.0709 20.0242 16.825 19.9494 16.6219 19.7997L13.5 17.5331L10.3781 19.7997C10.175 19.9494 9.92909 20.0242 9.69388 20.0242C9.45867 20.0242 9.21277 19.9494 9.00964 19.7997C8.60337 19.5003 8.4323 18.9765 8.58198 18.4953L9.76872 14.8282L6.64685 12.5617C6.24058 12.2623 6.06952 11.7384 6.2192 11.2573C6.37957 10.7762 6.8286 10.4448 7.3311 10.4448H11.1907L12.3774 6.77764C12.5378 6.29653 12.9868 5.9651 13.4893 5.9651C13.9918 5.9651 14.4408 6.29653 14.6012 6.77764L15.7879 10.4448H19.6475C20.289 10.4448 20.8129 10.9686 20.8129 11.6101C20.8129 12.0164 20.6097 12.3692 20.2997 12.583H20.3211Z"
        fill="#F7F6FA" />
</svg>