<svg width="18" height="18" viewBox="0 0 18 18" fill="none" xmlns="http://www.w3.org/2000/svg">
    <path
        d="M8.99911 0C4.02924 0 0 4.02924 0 8.99911C0 13.969 4.02924 18 8.99911 18C13.969 18 18 13.9708 18 8.99911C18 4.02746 13.9708 0 8.99911 0ZM14.3068 11.2804L12.4469 11.3249C11.9757 11.3356 11.629 11.7801 11.7232 12.2531L12.0948 14.1148C12.2531 14.9025 11.2769 15.3826 10.7737 14.7656L9.58056 13.3075C9.27828 12.9377 8.72172 12.9377 8.41944 13.3075L7.22632 14.7656C6.72133 15.3826 5.74691 14.9025 5.90339 14.1148L6.27502 12.2531C6.36926 11.7801 6.02252 11.3356 5.55132 11.3249L3.6914 11.2804C2.90546 11.2627 2.66542 10.1833 3.366 9.81705L5.02144 8.95288C5.44107 8.73417 5.56554 8.17939 5.28104 7.79532L4.15549 6.28213C3.67895 5.642 4.35464 4.77783 5.06945 5.10856L6.764 5.8945C7.19253 6.09365 7.69396 5.84649 7.80954 5.37884L8.26474 3.53492C8.45856 2.7561 9.54144 2.7561 9.73348 3.53492L10.1887 5.37884C10.3043 5.84649 10.8057 6.09365 11.236 5.8945L12.9288 5.10856C13.6454 4.77783 14.3193 5.642 13.8445 6.28213L12.719 7.79532C12.4327 8.17939 12.5571 8.73417 12.9768 8.95288L14.634 9.81705C15.3328 10.1833 15.0928 11.2627 14.3068 11.2804Z"
        fill="#F8F9FA" />
</svg>