<svg width="9" height="11" viewBox="0 0 9 11" fill="none" xmlns="http://www.w3.org/2000/svg">
<path d="M6.86657 4.05543V3.50773C6.86657 2.02082 5.6612 0.81543 4.17427 0.81543C2.68734 0.81543 1.48197 2.02082 1.48197 3.50773V4.05543C0.781983 4.36093 0.329135 5.05169 0.328125 5.81542V8.12312C0.329387 9.18467 1.18963 10.0449 2.25119 10.0462H6.09734C7.15889 10.0449 8.01914 9.18467 8.02042 8.12312V5.81542C8.01943 5.05169 7.56656 4.36093 6.86657 4.05543ZM4.55888 7.3539C4.55888 7.56631 4.38669 7.73851 4.17427 7.73851C3.96186 7.73851 3.78966 7.56631 3.78966 7.3539V6.58466C3.78966 6.37224 3.96186 6.20005 4.17427 6.20005C4.38669 6.20005 4.55888 6.37224 4.55888 6.58466V7.3539ZM6.09736 3.89236H2.25119V3.50775C2.25119 2.44567 3.11218 1.58467 4.17427 1.58467C5.23637 1.58467 6.09736 2.44565 6.09736 3.50775V3.89236Z" fill="#0E1926"/>
</svg>
