<svg width="40" height="42" viewBox="0 0 40 42" fill="none" xmlns="http://www.w3.org/2000/svg">
<path d="M0 0V33.6771C0 38.2731 3.8127 42 8.51451 42H31.4829C36.1847 42 40 38.2731 40 33.6771V0H0ZM29.2332 28.8107L25.9971 28.8858C25.1771 28.9058 24.575 29.6622 24.739 30.4662L25.3847 33.6321C25.6588 34.972 23.96 35.7885 23.0863 34.7391L21.0108 32.2595C20.4856 31.6309 19.517 31.6309 18.9892 32.2595L16.9137 34.7391C16.0348 35.7885 14.3412 34.972 14.6128 33.6321L15.2585 30.4662C15.4225 29.6622 14.8203 28.9058 13.9978 28.8858L10.7642 28.8107C9.39594 28.7806 8.97828 26.9447 10.1979 26.3211L13.078 24.8509C13.8082 24.4802 14.0234 23.5359 13.5289 22.8822L11.5713 20.31C10.7411 19.2205 11.9172 17.7528 13.16 18.3138L16.1092 19.6513C16.8548 19.9894 17.7285 19.5686 17.9284 18.7746L18.7227 15.6364C19.0584 14.3114 20.9416 14.3114 21.2773 15.6364L22.0691 18.7746C22.2715 19.5686 23.1427 19.9894 23.8908 19.6513L26.8349 18.3138C28.0828 17.7528 29.2563 19.2205 28.4287 20.31L26.4711 22.8822C25.974 23.5359 26.1892 24.4802 26.9195 24.8509L29.8021 26.3211C31.0192 26.9447 30.6015 28.7806 29.2332 28.8107Z" fill="#F2F2FA"/>
</svg>
