<svg width="30" height="42" viewBox="0 0 30 42" fill="none" xmlns="http://www.w3.org/2000/svg">
<path d="M29.5 0.5V35.3064C29.5 38.7274 26.5713 41.5 22.9595 41.5H7.04242C3.42874 41.5 0.500002 38.7274 0.500002 35.3064V0.5H29.5ZM5.78668 30.5065L9.01656 30.5792C9.83338 30.5978 10.4357 31.3283 10.2723 32.1053L9.62671 35.1648C9.35313 36.4598 11.0478 37.248 11.9197 36.2343L13.9923 33.8381C14.5158 33.2307 15.4822 33.2307 16.0077 33.8381L18.0783 36.2343C18.9562 37.248 20.6469 36.4598 20.3753 35.1648L19.7297 32.1053C19.5663 31.3283 20.1686 30.5978 20.9874 30.5792L24.2153 30.5065C25.5793 30.4767 25.9965 28.7029 24.7802 28.101L21.9065 26.6812C21.1783 26.3216 20.9618 25.4104 21.4558 24.7788L23.4103 22.2913C24.2369 21.2404 23.0639 19.8205 21.8239 20.3628L18.8814 21.6559C18.1374 21.982 17.2674 21.5758 17.0666 20.8081L16.2754 17.7765C15.9388 16.4964 14.0592 16.4964 13.7266 17.7765L12.9353 20.8081C12.7346 21.5758 11.8646 21.982 11.1186 21.6559L8.18006 20.3628C6.93613 19.8205 5.76503 21.2404 6.58972 22.2913L8.54418 24.7788C9.04018 25.4104 8.82367 26.3216 8.09543 26.6812L5.21983 28.101C4.00543 28.7029 4.4227 30.4767 5.78668 30.5065Z" fill="#F8F9FA"/>
</svg>
