<svg viewBox="0 0 8 9" fill="none" xmlns="http://www.w3.org/2000/svg">
<path d="M6.44854 3.04311V2.53959C6.44854 1.17261 5.34039 0.0644531 3.97341 0.0644531C2.60642 0.0644531 1.49827 1.17261 1.49827 2.53959V3.04311C0.854749 3.32396 0.438428 3.959 0.4375 4.66113V6.78268C0.43866 7.75861 1.22952 8.54948 2.20544 8.55064H5.74135C6.71728 8.54948 7.50814 7.75861 7.50931 6.78268V4.66113C7.5084 3.959 7.09206 3.32396 6.44854 3.04311ZM4.32699 6.07551C4.32699 6.27079 4.16869 6.42909 3.97341 6.42909C3.77812 6.42909 3.61982 6.27079 3.61982 6.07551V5.36832C3.61982 5.17304 3.77812 5.01473 3.97341 5.01473C4.16869 5.01473 4.32699 5.17304 4.32699 5.36832V6.07551ZM5.74137 2.89319H2.20544V2.5396C2.20544 1.56319 2.99698 0.771641 3.97341 0.771641C4.94983 0.771641 5.74137 1.56318 5.74137 2.5396V2.89319Z" fill="#0E1926"/>
</svg>
