<svg width="49" height="17" viewBox="0 0 49 17" fill="none" xmlns="http://www.w3.org/2000/svg">
<path d="M14.2407 0.939727L10.6787 11.3811C10.6787 11.3811 10.4724 10.4943 10.3898 9.94254C8.35786 5.39473 5.06801 3.72926 5.06801 3.72926L8.19382 15.6041H12.4838L18.407 0.93457H14.2407L14.2407 0.939727ZM17.6401 15.6041H21.5279L23.8829 0.939727H19.9435L17.6401 15.6041Z" fill="#FAFAFA"/>
<path d="M10.2099 9.07207L8.89963 2.41535C8.89963 2.41535 8.30653 0.971602 6.76997 0.971602C5.22825 0.971602 0.747468 0.971602 0.747468 0.971602C0.747468 0.971602 8.42534 3.31254 10.2099 9.07207ZM29.4063 5.13785C29.4062 4.28707 30.0816 3.65285 32.0204 3.65285C33.2785 3.65285 34.7172 4.6016 34.7172 4.6016L35.3459 1.36348C35.3459 1.36348 33.5051 0.641602 31.7004 0.641602C27.6063 0.641602 25.4925 2.66801 25.4927 5.23066C25.4931 9.86098 30.8917 9.23192 30.8919 11.6141C30.8919 12.0163 30.5775 12.9599 28.3294 12.9599C26.0761 12.9599 24.591 12.1039 24.591 12.1039L23.921 15.2132C23.921 15.2132 25.3597 16.0691 28.1492 16.0691C30.9387 16.0691 34.8109 13.9086 34.8106 10.8046C34.8102 7.07145 29.4065 6.80332 29.4063 5.13785ZM45.184 0.940664H41.09L34.7028 15.605H38.5699L39.369 13.5116H44.2416L44.6595 15.605H48.2018L45.184 0.940664ZM40.4464 10.7066L42.565 5.16879L43.6793 10.7066H40.4464Z" fill="#FAFAFA"/>
</svg>
